<svg width="217.000000" height="70.000000" viewBox="0 0 217 70" fill="none" xmlns="http://www.w3.org/2000/svg" xmlns:xlink="http://www.w3.org/1999/xlink">
	<desc>
			Created with Pixso.
	</desc>
	<defs/>
	<rect id="bg" x="0.459961" y="-0.166748" rx="7.018626" width="214.959442" height="68.782532" stroke="#FFFFFF" stroke-opacity="1.000000" stroke-width="1.403725"/>
	<path id="&lt;Path&gt;" d="M43.31 35.06C43.33 33.53 43.74 32.02 44.5 30.69C45.25 29.36 46.33 28.24 47.64 27.44C46.81 26.25 45.72 25.28 44.45 24.59C43.17 23.91 41.76 23.52 40.32 23.48C37.23 23.16 34.25 25.32 32.68 25.32C31.08 25.32 28.66 23.51 26.06 23.57C24.37 23.62 22.73 24.11 21.29 24.99C19.86 25.86 18.67 27.1 17.85 28.57C14.3 34.71 16.95 43.74 20.35 48.71C22.05 51.14 24.04 53.86 26.64 53.76C29.18 53.66 30.13 52.14 33.2 52.14C36.25 52.14 37.14 53.76 39.79 53.7C42.52 53.66 44.24 51.26 45.89 48.8C47.11 47.07 48.05 45.16 48.67 43.13C47.08 42.46 45.73 41.33 44.78 39.9C43.83 38.46 43.32 36.78 43.31 35.06Z" fill="#FFFFFF" fill-opacity="1.000000" fill-rule="nonzero"/>
	<path id="&lt;Path&gt;" d="M38.3 20.21C39.79 18.43 40.53 16.13 40.35 13.81C38.07 14.05 35.97 15.13 34.46 16.85C33.72 17.69 33.16 18.67 32.8 19.73C32.44 20.79 32.29 21.91 32.36 23.02C33.5 23.03 34.63 22.79 35.66 22.3C36.68 21.81 37.59 21.1 38.3 20.21Z" fill="#FFFFFF" fill-opacity="1.000000" fill-rule="nonzero"/>
	<path id="Vector" d="M75.49 47.61L66.8 47.61L64.72 53.76L61.04 53.76L69.26 30.98L73.08 30.98L81.31 53.76L77.57 53.76L75.49 47.61ZM67.7 44.76L74.58 44.76L71.19 34.77L71.1 34.77L67.7 44.76Z" fill="#FFFFFF" fill-opacity="1.000000" fill-rule="nonzero"/>
	<path id="Vector" d="M99.08 45.46C99.08 50.62 96.31 53.94 92.14 53.94C91.09 53.99 90.04 53.75 89.11 53.24C88.19 52.72 87.43 51.96 86.92 51.03L86.84 51.03L86.84 59.26L83.43 59.26L83.43 37.15L86.73 37.15L86.73 39.91L86.79 39.91C87.33 38.99 88.1 38.23 89.03 37.72C89.96 37.2 91.02 36.94 92.08 36.98C96.3 36.98 99.08 40.31 99.08 45.46ZM95.57 45.46C95.57 42.1 93.83 39.88 91.18 39.88C88.58 39.88 86.82 42.14 86.82 45.46C86.82 48.81 88.58 51.05 91.18 51.05C93.83 51.05 95.57 48.85 95.57 45.46Z" fill="#FFFFFF" fill-opacity="1.000000" fill-rule="nonzero"/>
	<path id="Vector" d="M117.36 45.46C117.36 50.62 114.6 53.94 110.43 53.94C109.37 53.99 108.32 53.75 107.4 53.24C106.47 52.72 105.71 51.96 105.2 51.03L105.12 51.03L105.12 59.26L101.71 59.26L101.71 37.15L105.01 37.15L105.01 39.91L105.08 39.91C105.61 38.99 106.38 38.23 107.32 37.72C108.25 37.2 109.3 36.94 110.37 36.98C114.58 36.98 117.36 40.31 117.36 45.46ZM113.86 45.46C113.86 42.1 112.12 39.88 109.47 39.88C106.86 39.88 105.11 42.14 105.11 45.46C105.11 48.81 106.86 51.05 109.47 51.05C112.12 51.05 113.86 48.85 113.86 45.46L113.86 45.46Z" fill="#FFFFFF" fill-opacity="1.000000" fill-rule="nonzero"/>
	<path id="Vector" d="M129.45 47.42C129.7 49.67 131.89 51.16 134.89 51.16C137.77 51.16 139.83 49.67 139.83 47.64C139.83 45.87 138.59 44.81 135.63 44.08L132.68 43.37C128.5 42.36 126.56 40.41 126.56 37.23C126.56 33.3 129.98 30.6 134.85 30.6C139.66 30.6 142.96 33.3 143.07 37.23L139.63 37.23C139.42 34.96 137.54 33.58 134.8 33.58C132.05 33.58 130.17 34.97 130.17 36.99C130.17 38.6 131.37 39.55 134.31 40.28L136.82 40.89C141.49 42 143.44 43.88 143.44 47.21C143.44 51.47 140.04 54.14 134.64 54.14C129.59 54.14 126.18 51.54 125.95 47.42L129.45 47.42Z" fill="#FFFFFF" fill-opacity="1.000000" fill-rule="nonzero"/>
	<path id="Vector" d="M150.8 33.22L150.8 37.15L153.95 37.15L153.95 39.85L150.8 39.85L150.8 49.01C150.8 50.43 151.43 51.1 152.82 51.1C153.19 51.09 153.57 51.06 153.94 51.02L153.94 53.7C153.31 53.82 152.68 53.87 152.04 53.86C148.68 53.86 147.37 52.6 147.37 49.37L147.37 39.85L144.95 39.85L144.95 37.15L147.37 37.15L147.37 33.22L150.8 33.22Z" fill="#FFFFFF" fill-opacity="1.000000" fill-rule="nonzero"/>
	<path id="Vector" d="M155.78 45.46C155.78 40.23 158.86 36.95 163.66 36.95C168.48 36.95 171.54 40.23 171.54 45.46C171.54 50.7 168.5 53.97 163.66 53.97C158.83 53.97 155.78 50.7 155.78 45.46ZM168.07 45.46C168.07 41.87 166.43 39.76 163.66 39.76C160.9 39.76 159.26 41.89 159.26 45.46C159.26 49.06 160.9 51.16 163.66 51.16C166.43 51.16 168.07 49.06 168.07 45.46L168.07 45.46Z" fill="#FFFFFF" fill-opacity="1.000000" fill-rule="nonzero"/>
	<path id="Vector" d="M174.35 37.15L177.61 37.15L177.61 39.98L177.69 39.98C177.91 39.1 178.42 38.32 179.15 37.77C179.88 37.22 180.77 36.94 181.68 36.98C182.07 36.98 182.47 37.02 182.85 37.11L182.85 40.29C182.35 40.14 181.84 40.07 181.32 40.09C180.82 40.07 180.33 40.16 179.87 40.34C179.41 40.53 179 40.82 178.66 41.18C178.32 41.55 178.07 41.98 177.91 42.45C177.76 42.92 177.71 43.42 177.76 43.91L177.76 53.76L174.35 53.76L174.35 37.15Z" fill="#FFFFFF" fill-opacity="1.000000" fill-rule="nonzero"/>
	<path id="Vector" d="M198.57 48.88C198.11 51.9 195.18 53.97 191.42 53.97C186.59 53.97 183.59 50.73 183.59 45.54C183.59 40.33 186.6 36.95 191.27 36.95C195.87 36.95 198.76 40.1 198.76 45.14L198.76 46.31L187.03 46.31L187.03 46.52C186.97 47.13 187.05 47.74 187.25 48.32C187.45 48.9 187.78 49.43 188.2 49.88C188.62 50.32 189.14 50.67 189.7 50.9C190.27 51.14 190.88 51.24 191.5 51.22C192.3 51.3 193.11 51.11 193.8 50.69C194.49 50.27 195.03 49.64 195.33 48.88L198.57 48.88ZM187.04 43.93L195.35 43.93C195.38 43.38 195.3 42.83 195.1 42.31C194.91 41.8 194.62 41.32 194.23 40.93C193.85 40.53 193.39 40.22 192.88 40.01C192.37 39.8 191.83 39.7 191.27 39.71C190.72 39.71 190.17 39.81 189.66 40.02C189.14 40.24 188.67 40.55 188.28 40.94C187.89 41.33 187.58 41.8 187.36 42.31C187.15 42.82 187.04 43.37 187.04 43.93L187.04 43.93Z" fill="#FFFFFF" fill-opacity="1.000000" fill-rule="nonzero"/>
	<path id="Vector" d="M67.27 13.83C67.99 13.78 68.71 13.88 69.37 14.14C70.04 14.4 70.64 14.81 71.14 15.33C71.63 15.85 72 16.47 72.22 17.15C72.45 17.84 72.51 18.56 72.42 19.27C72.42 22.77 70.53 24.78 67.27 24.78L63.32 24.78L63.32 13.83L67.27 13.83ZM65.02 23.23L67.08 23.23C67.59 23.26 68.1 23.17 68.58 22.98C69.05 22.79 69.48 22.5 69.83 22.12C70.17 21.74 70.43 21.29 70.58 20.8C70.73 20.31 70.77 19.8 70.69 19.29C70.76 18.79 70.72 18.27 70.57 17.79C70.41 17.3 70.16 16.86 69.81 16.48C69.47 16.11 69.04 15.81 68.57 15.62C68.1 15.43 67.59 15.35 67.08 15.38L65.02 15.38L65.02 23.23Z" fill="#FFFFFF" fill-opacity="1.000000" fill-rule="nonzero"/>
	<path id="Vector" d="M74.35 20.64C74.29 20.1 74.36 19.55 74.53 19.03C74.7 18.52 74.98 18.04 75.35 17.64C75.71 17.23 76.16 16.91 76.66 16.69C77.16 16.47 77.7 16.35 78.24 16.35C78.79 16.35 79.33 16.47 79.83 16.69C80.32 16.91 80.77 17.23 81.14 17.64C81.5 18.04 81.78 18.52 81.96 19.03C82.13 19.55 82.19 20.1 82.14 20.64C82.19 21.19 82.13 21.73 81.96 22.25C81.79 22.77 81.51 23.25 81.14 23.65C80.77 24.06 80.33 24.38 79.83 24.6C79.33 24.82 78.79 24.94 78.24 24.94C77.7 24.94 77.16 24.82 76.66 24.6C76.16 24.38 75.71 24.06 75.34 23.65C74.98 23.25 74.7 22.77 74.53 22.25C74.35 21.73 74.29 21.19 74.35 20.64ZM80.46 20.64C80.46 18.85 79.66 17.8 78.24 17.8C76.83 17.8 76.03 18.85 76.03 20.64C76.03 22.45 76.83 23.49 78.24 23.49C79.66 23.49 80.46 22.44 80.46 20.64L80.46 20.64Z" fill="#FFFFFF" fill-opacity="1.000000" fill-rule="nonzero"/>
	<path id="Vector" d="M92.5 24.78L90.81 24.78L89.1 18.69L88.97 18.69L87.27 24.78L85.59 24.78L83.32 16.51L84.97 16.51L86.45 22.82L86.57 22.82L88.27 16.51L89.83 16.51L91.53 22.82L91.66 22.82L93.13 16.51L94.77 16.51L92.5 24.78Z" fill="#FFFFFF" fill-opacity="1.000000" fill-rule="nonzero"/>
	<path id="Vector" d="M96.68 16.51L98.25 16.51L98.25 17.83L98.37 17.83C98.58 17.36 98.93 16.96 99.37 16.7C99.81 16.43 100.33 16.31 100.84 16.35C101.24 16.32 101.64 16.39 102.02 16.53C102.39 16.68 102.73 16.91 103.01 17.2C103.28 17.5 103.49 17.85 103.61 18.24C103.73 18.62 103.76 19.03 103.7 19.43L103.7 24.78L102.07 24.78L102.07 19.84C102.07 18.51 101.49 17.85 100.28 17.85C100.01 17.84 99.74 17.88 99.49 17.99C99.23 18.09 99 18.24 98.82 18.44C98.63 18.64 98.49 18.88 98.4 19.14C98.31 19.4 98.28 19.67 98.31 19.94L98.31 24.78L96.68 24.78L96.68 16.51Z" fill="#FFFFFF" fill-opacity="1.000000" fill-rule="nonzero"/>
	<path id="Vector" d="M106.3 13.29L107.93 13.29L107.93 24.78L106.3 24.78L106.3 13.29Z" fill="#FFFFFF" fill-opacity="1.000000" fill-rule="nonzero"/>
	<path id="Vector" d="M110.19 20.64C110.14 20.1 110.2 19.55 110.38 19.03C110.55 18.52 110.83 18.04 111.19 17.64C111.56 17.23 112.01 16.91 112.51 16.69C113.01 16.47 113.54 16.35 114.09 16.35C114.64 16.35 115.17 16.47 115.67 16.69C116.17 16.91 116.62 17.23 116.99 17.64C117.35 18.04 117.63 18.52 117.8 19.03C117.98 19.55 118.04 20.1 117.99 20.64C118.04 21.18 117.98 21.73 117.81 22.25C117.63 22.77 117.36 23.25 116.99 23.65C116.62 24.06 116.17 24.38 115.68 24.6C115.18 24.82 114.64 24.94 114.09 24.94C113.54 24.94 113 24.82 112.5 24.6C112.01 24.38 111.56 24.06 111.19 23.65C110.82 23.25 110.55 22.77 110.37 22.25C110.2 21.73 110.14 21.18 110.19 20.64ZM116.31 20.64C116.31 18.85 115.5 17.8 114.09 17.8C112.67 17.8 111.88 18.85 111.88 20.64C111.88 22.45 112.67 23.49 114.09 23.49C115.5 23.49 116.31 22.44 116.31 20.64L116.31 20.64Z" fill="#FFFFFF" fill-opacity="1.000000" fill-rule="nonzero"/>
	<path id="Vector" d="M119.7 22.44C119.7 20.95 120.81 20.09 122.78 19.97L125.01 19.84L125.01 19.13C125.01 18.26 124.44 17.77 123.32 17.77C122.41 17.77 121.78 18.1 121.6 18.68L120.02 18.68C120.19 17.26 121.52 16.35 123.4 16.35C125.47 16.35 126.64 17.39 126.64 19.13L126.64 24.78L125.07 24.78L125.07 23.61L124.94 23.61C124.68 24.03 124.31 24.37 123.87 24.6C123.44 24.83 122.95 24.93 122.46 24.91C122.11 24.95 121.76 24.91 121.43 24.8C121.1 24.7 120.79 24.52 120.53 24.29C120.27 24.05 120.06 23.77 119.92 23.45C119.78 23.13 119.7 22.79 119.7 22.44ZM125.01 21.73L125.01 21.04L123 21.17C121.86 21.25 121.34 21.63 121.34 22.36C121.34 23.11 121.99 23.54 122.88 23.54C123.13 23.57 123.4 23.54 123.65 23.46C123.9 23.39 124.13 23.26 124.33 23.09C124.53 22.92 124.69 22.71 124.81 22.48C124.93 22.25 125 21.99 125.01 21.73Z" fill="#FFFFFF" fill-opacity="1.000000" fill-rule="nonzero"/>
	<path id="Vector" d="M128.78 20.64C128.78 18.03 130.12 16.38 132.21 16.38C132.73 16.35 133.24 16.48 133.69 16.73C134.14 16.99 134.5 17.37 134.74 17.83L134.87 17.83L134.87 13.29L136.5 13.29L136.5 24.78L134.93 24.78L134.93 23.47L134.81 23.47C134.55 23.93 134.17 24.3 133.71 24.55C133.25 24.81 132.73 24.93 132.21 24.91C130.11 24.91 128.78 23.26 128.78 20.64ZM130.47 20.64C130.47 22.39 131.29 23.45 132.67 23.45C134.05 23.45 134.9 22.38 134.9 20.65C134.9 18.93 134.04 17.84 132.67 17.84C131.3 17.84 130.47 18.9 130.47 20.64L130.47 20.64Z" fill="#FFFFFF" fill-opacity="1.000000" fill-rule="nonzero"/>
	<path id="Vector" d="M143.24 20.64C143.19 20.1 143.25 19.55 143.42 19.03C143.6 18.52 143.88 18.04 144.24 17.64C144.61 17.23 145.06 16.91 145.56 16.69C146.05 16.47 146.59 16.35 147.14 16.35C147.68 16.35 148.22 16.47 148.72 16.69C149.22 16.91 149.67 17.23 150.03 17.64C150.4 18.04 150.68 18.52 150.85 19.03C151.03 19.55 151.09 20.1 151.03 20.64C151.09 21.19 151.03 21.73 150.86 22.25C150.68 22.77 150.41 23.25 150.04 23.65C149.67 24.06 149.22 24.38 148.72 24.6C148.23 24.82 147.69 24.94 147.14 24.94C146.59 24.94 146.05 24.82 145.55 24.6C145.05 24.38 144.61 24.06 144.24 23.65C143.87 23.25 143.59 22.77 143.42 22.25C143.25 21.73 143.19 21.19 143.24 20.64ZM149.36 20.64C149.36 18.85 148.55 17.8 147.14 17.8C145.72 17.8 144.93 18.85 144.93 20.64C144.93 22.45 145.72 23.49 147.14 23.49C148.55 23.49 149.36 22.44 149.36 20.64Z" fill="#FFFFFF" fill-opacity="1.000000" fill-rule="nonzero"/>
	<path id="Vector" d="M153.22 16.51L154.79 16.51L154.79 17.83L154.91 17.83C155.12 17.36 155.47 16.96 155.91 16.7C156.35 16.43 156.87 16.31 157.38 16.35C157.78 16.32 158.19 16.39 158.56 16.53C158.94 16.68 159.27 16.91 159.55 17.2C159.82 17.5 160.03 17.85 160.15 18.24C160.27 18.62 160.3 19.03 160.24 19.43L160.24 24.78L158.61 24.78L158.61 19.84C158.61 18.51 158.03 17.85 156.83 17.85C156.55 17.84 156.28 17.88 156.03 17.99C155.77 18.09 155.55 18.24 155.36 18.44C155.17 18.64 155.03 18.88 154.94 19.14C154.86 19.4 154.82 19.67 154.85 19.94L154.85 24.78L153.22 24.78L153.22 16.51Z" fill="#FFFFFF" fill-opacity="1.000000" fill-rule="nonzero"/>
	<path id="Vector" d="M169.45 14.46L169.45 16.55L171.24 16.55L171.24 17.92L169.45 17.92L169.45 22.17C169.45 23.04 169.81 23.42 170.62 23.42C170.83 23.42 171.04 23.4 171.24 23.38L171.24 24.74C170.95 24.79 170.65 24.82 170.36 24.82C168.54 24.82 167.82 24.18 167.82 22.59L167.82 17.92L166.51 17.92L166.51 16.55L167.82 16.55L167.82 14.46L169.45 14.46Z" fill="#FFFFFF" fill-opacity="1.000000" fill-rule="nonzero"/>
	<path id="Vector" d="M173.47 13.29L175.09 13.29L175.09 17.84L175.22 17.84C175.43 17.37 175.79 16.97 176.24 16.7C176.69 16.44 177.21 16.32 177.74 16.36C178.14 16.34 178.54 16.41 178.91 16.56C179.28 16.71 179.61 16.94 179.88 17.23C180.15 17.53 180.36 17.88 180.48 18.26C180.6 18.64 180.63 19.04 180.58 19.44L180.58 24.78L178.95 24.78L178.95 19.84C178.95 18.52 178.33 17.86 177.18 17.86C176.9 17.83 176.62 17.87 176.36 17.97C176.09 18.07 175.85 18.22 175.65 18.42C175.46 18.62 175.3 18.86 175.21 19.12C175.11 19.39 175.08 19.67 175.1 19.95L175.1 24.78L173.47 24.78L173.47 13.29Z" fill="#FFFFFF" fill-opacity="1.000000" fill-rule="nonzero"/>
	<path id="Vector" d="M190.09 22.55C189.87 23.3 189.39 23.95 188.73 24.39C188.08 24.83 187.29 25.02 186.51 24.94C185.96 24.95 185.42 24.85 184.92 24.63C184.42 24.41 183.98 24.09 183.61 23.69C183.25 23.28 182.98 22.8 182.82 22.28C182.66 21.76 182.62 21.21 182.69 20.67C182.62 20.13 182.66 19.58 182.82 19.06C182.98 18.54 183.25 18.05 183.61 17.64C183.97 17.23 184.42 16.91 184.92 16.68C185.41 16.46 185.96 16.35 186.5 16.35C188.8 16.35 190.19 17.93 190.19 20.52L190.19 21.09L184.35 21.09L184.35 21.18C184.33 21.48 184.37 21.79 184.46 22.08C184.56 22.36 184.72 22.63 184.93 22.85C185.14 23.07 185.39 23.25 185.67 23.37C185.95 23.49 186.25 23.55 186.55 23.55C186.94 23.59 187.34 23.52 187.69 23.35C188.04 23.17 188.33 22.89 188.52 22.55L190.09 22.55ZM184.35 19.88L188.53 19.88C188.55 19.61 188.51 19.33 188.42 19.06C188.32 18.8 188.17 18.56 187.98 18.36C187.79 18.16 187.56 18 187.3 17.89C187.05 17.79 186.77 17.74 186.49 17.74C186.21 17.74 185.93 17.79 185.67 17.9C185.41 18 185.17 18.16 184.97 18.36C184.77 18.56 184.61 18.8 184.51 19.06C184.4 19.32 184.35 19.6 184.35 19.88L184.35 19.88Z" fill="#FFFFFF" fill-opacity="1.000000" fill-rule="nonzero"/>
</svg>
