<svg width="41.000000" height="45.000000" viewBox="0 0 41 45" fill="none" xmlns="http://www.w3.org/2000/svg" xmlns:xlink="http://www.w3.org/1999/xlink">
	<desc>
			Created with Pixso.
	</desc>
	<defs/>
	<path id="path94" d="M18.47 21.21L-0.21 41.04C-0.21 41.04 -0.21 41.05 -0.21 41.05C0.36 43.2 2.33 44.79 4.66 44.79C5.6 44.79 6.47 44.53 7.22 44.09L7.28 44.06L28.31 31.92L18.47 21.21Z" fill="#EA4335" fill-opacity="1.000000" fill-rule="nonzero"/>
	<path id="path98" d="M37.37 17.83L37.35 17.82L28.27 12.56L18.04 21.66L28.31 31.92L37.34 26.71C38.92 25.85 40 24.19 40 22.26C40 20.35 38.94 18.69 37.37 17.83Z" fill="#FBBC04" fill-opacity="1.000000" fill-rule="nonzero"/>
	<path id="path102" d="M-0.21 3.4C-0.33 3.82 -0.39 4.25 -0.39 4.7L-0.39 39.74C-0.39 40.19 -0.33 40.62 -0.21 41.04L19.11 21.72L-0.21 3.4Z" fill="#4285F4" fill-opacity="1.000000" fill-rule="nonzero"/>
	<path id="path106" d="M18.61 22.22L28.27 12.55L7.27 0.38C6.51 -0.08 5.62 -0.34 4.66 -0.34C2.33 -0.34 0.36 1.24 -0.21 3.4C-0.21 3.4 -0.21 3.4 -0.21 3.4L18.61 22.22Z" fill="#34A853" fill-opacity="1.000000" fill-rule="nonzero"/>
</svg>
