<svg width="32.000000" height="40.000000" viewBox="0 0 32 40" fill="none" xmlns="http://www.w3.org/2000/svg" xmlns:xlink="http://www.w3.org/1999/xlink">
	<desc>
			Created with Pixso.
	</desc>
	<defs/>
	<path id="&lt;Path&gt;" d="M26.31 21.06C26.33 19.53 26.74 18.02 27.5 16.69C28.25 15.36 29.33 14.24 30.64 13.44C29.81 12.25 28.72 11.28 27.45 10.59C26.17 9.91 24.76 9.52 23.32 9.48C20.23 9.16 17.25 11.32 15.68 11.32C14.08 11.32 11.66 9.51 9.06 9.57C7.37 9.62 5.73 10.11 4.29 10.99C2.86 11.86 1.67 13.1 0.85 14.57C-2.7 20.71 -0.05 29.74 3.35 34.71C5.05 37.14 7.04 39.86 9.64 39.76C12.18 39.66 13.13 38.14 16.2 38.14C19.25 38.14 20.14 39.76 22.79 39.7C25.52 39.66 27.24 37.26 28.89 34.8C30.11 33.07 31.05 31.16 31.67 29.13C30.08 28.46 28.73 27.33 27.78 25.9C26.83 24.46 26.32 22.78 26.31 21.06Z" fill="#FFFFFF" fill-opacity="1.000000" fill-rule="nonzero"/>
	<path id="&lt;Path&gt;" d="M21.3 6.21C22.79 4.43 23.53 2.13 23.35 -0.19C21.07 0.05 18.97 1.13 17.46 2.85C16.72 3.69 16.16 4.67 15.8 5.73C15.44 6.79 15.29 7.91 15.36 9.02C16.5 9.03 17.63 8.79 18.66 8.3C19.68 7.81 20.59 7.1 21.3 6.21Z" fill="#FFFFFF" fill-opacity="1.000000" fill-rule="nonzero"/>
</svg>
