<svg width="236.000000" height="70.000000" viewBox="0 0 236 70" fill="none" xmlns="http://www.w3.org/2000/svg" xmlns:xlink="http://www.w3.org/1999/xlink">
	<desc>
			Created with Pixso.
	</desc>
	<defs/>
	<rect id="Rectangle 2" x="-0.176819" y="-0.166748" rx="7.018626" width="235.474884" height="68.782532" stroke="#FFFFFF" stroke-opacity="1.000000" stroke-width="1.403725"/>
	<path id="path42" d="M82.32 17.1C82.32 18.57 81.88 19.74 81.01 20.61C80.02 21.65 78.73 22.17 77.14 22.17C75.62 22.17 74.33 21.65 73.27 20.59C72.21 19.54 71.68 18.23 71.68 16.67C71.68 15.11 72.21 13.81 73.27 12.75C74.33 11.7 75.62 11.17 77.14 11.17C77.9 11.17 78.62 11.32 79.3 11.62C79.99 11.91 80.54 12.3 80.95 12.79L80.03 13.72C79.33 12.89 78.37 12.47 77.14 12.47C76.04 12.47 75.08 12.86 74.27 13.64C73.46 14.42 73.06 15.43 73.06 16.67C73.06 17.92 73.46 18.93 74.27 19.71C75.08 20.49 76.04 20.88 77.14 20.88C78.32 20.88 79.3 20.49 80.09 19.7C80.59 19.19 80.89 18.48 80.97 17.57L77.14 17.57L77.14 16.31L82.25 16.31C82.29 16.58 82.32 16.85 82.32 17.1Z" fill="#FFFFFF" fill-opacity="1.000000" fill-rule="nonzero"/>
	<path id="path46" d="M82.32 17.1C82.32 18.57 81.88 19.74 81.01 20.61C80.02 21.65 78.73 22.17 77.14 22.17C75.62 22.17 74.33 21.65 73.27 20.59C72.21 19.54 71.68 18.23 71.68 16.67C71.68 15.11 72.21 13.81 73.27 12.75C74.33 11.7 75.62 11.17 77.14 11.17C77.9 11.17 78.62 11.32 79.3 11.62C79.99 11.91 80.54 12.3 80.95 12.79L80.03 13.72C79.33 12.89 78.37 12.47 77.14 12.47C76.04 12.47 75.08 12.86 74.27 13.64C73.46 14.42 73.06 15.43 73.06 16.67C73.06 17.92 73.46 18.93 74.27 19.71C75.08 20.49 76.04 20.88 77.14 20.88C78.32 20.88 79.3 20.49 80.09 19.7C80.59 19.19 80.89 18.48 80.97 17.57L77.14 17.57L77.14 16.31L82.25 16.31C82.29 16.58 82.32 16.85 82.32 17.1Z" fill="#FFFFFF" fill-opacity="1.000000" fill-rule="nonzero"/>
	<path id="path50" d="M90.41 12.7L85.61 12.7L85.61 16.04L89.94 16.04L89.94 17.31L85.61 17.31L85.61 20.64L90.41 20.64L90.41 21.94L84.26 21.94L84.26 11.41L90.41 11.41L90.41 12.7Z" fill="#FFFFFF" fill-opacity="1.000000" fill-rule="nonzero"/>
	<path id="path54" d="M90.41 12.7L85.61 12.7L85.61 16.04L89.94 16.04L89.94 17.31L85.61 17.31L85.61 20.64L90.41 20.64L90.41 21.94L84.26 21.94L84.26 11.41L90.41 11.41L90.41 12.7Z" fill="#FFFFFF" fill-opacity="1.000000" fill-rule="nonzero"/>
	<path id="path58" d="M96.11 21.94L94.76 21.94L94.76 12.7L91.82 12.7L91.82 11.41L99.05 11.41L99.05 12.7L96.11 12.7L96.11 21.94Z" fill="#FFFFFF" fill-opacity="1.000000" fill-rule="nonzero"/>
	<path id="path62" d="M96.11 21.94L94.76 21.94L94.76 12.7L91.82 12.7L91.82 11.41L99.05 11.41L99.05 12.7L96.11 12.7L96.11 21.94Z" fill="#FFFFFF" fill-opacity="1.000000" fill-rule="nonzero"/>
	<path id="path64" d="M104.29 11.41L105.64 11.41L105.64 21.94L104.29 21.94L104.29 11.41Z" fill="#FFFFFF" fill-opacity="1.000000" fill-rule="nonzero"/>
	<path id="path68" d="M111.64 21.94L110.29 21.94L110.29 12.7L107.35 12.7L107.35 11.41L114.58 11.41L114.58 12.7L111.64 12.7L111.64 21.94Z" fill="#FFFFFF" fill-opacity="1.000000" fill-rule="nonzero"/>
	<path id="path72" d="M111.64 21.94L110.29 21.94L110.29 12.7L107.35 12.7L107.35 11.41L114.58 11.41L114.58 12.7L111.64 12.7L111.64 21.94Z" fill="#FFFFFF" fill-opacity="1.000000" fill-rule="nonzero"/>
	<path id="path76" d="M121.55 19.7C122.33 20.48 123.29 20.88 124.41 20.88C125.54 20.88 126.5 20.48 127.27 19.7C128.05 18.91 128.45 17.9 128.45 16.67C128.45 15.45 128.05 14.44 127.27 13.65C126.5 12.86 125.54 12.47 124.41 12.47C123.29 12.47 122.33 12.86 121.55 13.65C120.78 14.44 120.39 15.45 120.39 16.67C120.39 17.9 120.78 18.91 121.55 19.7ZM128.27 20.58C127.24 21.64 125.95 22.17 124.41 22.17C122.88 22.17 121.59 21.64 120.56 20.58C119.52 19.51 119.01 18.21 119.01 16.67C119.01 15.13 119.52 13.83 120.56 12.77C121.59 11.71 122.88 11.17 124.41 11.17C125.94 11.17 127.23 11.71 128.27 12.78C129.31 13.85 129.83 15.14 129.83 16.67C129.83 18.21 129.31 19.51 128.27 20.58Z" fill="#FFFFFF" fill-opacity="1.000000" fill-rule="nonzero"/>
	<path id="path80" d="M121.55 19.7C122.33 20.48 123.29 20.88 124.41 20.88C125.54 20.88 126.5 20.48 127.27 19.7C128.05 18.91 128.45 17.9 128.45 16.67C128.45 15.45 128.05 14.44 127.27 13.65C126.5 12.86 125.54 12.47 124.41 12.47C123.29 12.47 122.33 12.86 121.55 13.65C120.78 14.44 120.39 15.45 120.39 16.67C120.39 17.9 120.78 18.91 121.55 19.7ZM128.27 20.58C127.24 21.64 125.95 22.17 124.41 22.17C122.88 22.17 121.59 21.64 120.56 20.58C119.52 19.51 119.01 18.21 119.01 16.67C119.01 15.13 119.52 13.83 120.56 12.77C121.59 11.71 122.88 11.17 124.41 11.17C125.94 11.17 127.23 11.71 128.27 12.78C129.31 13.85 129.83 15.14 129.83 16.67C129.83 18.21 129.31 19.51 128.27 20.58Z" fill="#FFFFFF" fill-opacity="1.000000" fill-rule="nonzero"/>
	<path id="path84" d="M131.72 21.94L131.72 11.41L133.37 11.41L138.49 19.6L138.55 19.6L138.49 17.57L138.49 11.41L139.84 11.41L139.84 21.94L138.43 21.94L133.08 13.35L133.02 13.35L133.08 15.38L133.08 21.94L131.72 21.94Z" fill="#FFFFFF" fill-opacity="1.000000" fill-rule="nonzero"/>
	<path id="path88" d="M131.72 21.94L131.72 11.41L133.37 11.41L138.49 19.6L138.55 19.6L138.49 17.57L138.49 11.41L139.84 11.41L139.84 21.94L138.43 21.94L133.08 13.35L133.02 13.35L133.08 15.38L133.08 21.94L131.72 21.94Z" fill="#FFFFFF" fill-opacity="1.000000" fill-rule="nonzero"/>
	<path id="Google Play" d="M186.75 51.77L190.03 51.77L190.03 29.83L186.75 29.83L186.75 51.77ZM216.24 37.73L212.49 47.24L212.38 47.24L208.48 37.73L204.95 37.73L210.8 51.02L207.47 58.42L210.88 58.42L219.88 37.73L216.24 37.73ZM197.67 49.27C196.6 49.27 195.11 48.74 195.11 47.41C195.11 45.72 196.97 45.07 198.58 45.07C200.01 45.07 200.69 45.38 201.57 45.8C201.31 47.84 199.56 49.27 197.67 49.27ZM198.07 37.25C195.7 37.25 193.24 38.3 192.23 40.61L195.13 41.82C195.75 40.61 196.91 40.22 198.13 40.22C199.82 40.22 201.54 41.23 201.57 43.04L201.57 43.26C200.97 42.92 199.71 42.42 198.15 42.42C195.02 42.42 191.83 44.14 191.83 47.35C191.83 50.29 194.4 52.18 197.28 52.18C199.48 52.18 200.69 51.19 201.46 50.04L201.57 50.04L201.57 51.73L204.73 51.73L204.73 43.32C204.73 39.43 201.82 37.25 198.07 37.25ZM177.83 40.4L173.18 40.4L173.18 32.88L177.83 32.88C180.28 32.88 181.67 34.91 181.67 36.64C181.67 38.34 180.28 40.4 177.83 40.4ZM177.75 29.83L169.91 29.83L169.91 51.77L173.18 51.77L173.18 43.46L177.75 43.46C181.38 43.46 184.95 40.83 184.95 36.64C184.95 32.46 181.38 29.83 177.75 29.83ZM134.97 49.28C132.71 49.28 130.82 47.38 130.82 44.78C130.82 42.16 132.71 40.23 134.97 40.23C137.2 40.23 138.95 42.16 138.95 44.78C138.95 47.38 137.2 49.28 134.97 49.28ZM138.73 38.96L138.62 38.96C137.88 38.08 136.47 37.29 134.69 37.29C130.96 37.29 127.54 40.57 127.54 44.78C127.54 48.97 130.96 52.22 134.69 52.22C136.47 52.22 137.88 51.43 138.62 50.52L138.73 50.52L138.73 51.6C138.73 54.45 137.2 55.98 134.74 55.98C132.74 55.98 131.49 54.54 130.98 53.32L128.13 54.51C128.95 56.49 131.13 58.92 134.74 58.92C138.59 58.92 141.84 56.66 141.84 51.14L141.84 37.74L138.73 37.74L138.73 38.96ZM144.1 51.77L147.38 51.77L147.38 29.83L144.1 29.83L144.1 51.77ZM152.21 44.53C152.13 41.65 154.45 40.18 156.11 40.18C157.42 40.18 158.52 40.83 158.88 41.76L152.21 44.53ZM162.39 42.04C161.77 40.37 159.87 37.29 156 37.29C152.16 37.29 148.96 40.32 148.96 44.76C148.96 48.94 152.13 52.22 156.37 52.22C159.79 52.22 161.77 50.13 162.59 48.91L160.04 47.21C159.2 48.46 158.04 49.28 156.37 49.28C154.7 49.28 153.51 48.51 152.75 47.02L162.73 42.89L162.39 42.04ZM82.89 39.58L82.89 42.75L90.46 42.75C90.24 44.53 89.65 45.83 88.74 46.73C87.64 47.84 85.91 49.05 82.89 49.05C78.22 49.05 74.58 45.29 74.58 40.63C74.58 35.96 78.22 32.21 82.89 32.21C85.41 32.21 87.24 33.19 88.6 34.47L90.83 32.23C88.94 30.42 86.42 29.04 82.89 29.04C76.5 29.04 71.13 34.24 71.13 40.63C71.13 47.02 76.5 52.22 82.89 52.22C86.34 52.22 88.94 51.09 90.97 48.97C93.07 46.88 93.72 43.94 93.72 41.56C93.72 40.83 93.66 40.15 93.55 39.58L82.89 39.58ZM102.33 49.28C100.07 49.28 98.12 47.41 98.12 44.76C98.12 42.07 100.07 40.23 102.33 40.23C104.59 40.23 106.54 42.07 106.54 44.76C106.54 47.41 104.59 49.28 102.33 49.28ZM102.33 37.29C98.2 37.29 94.84 40.43 94.84 44.76C94.84 49.05 98.2 52.22 102.33 52.22C106.46 52.22 109.82 49.05 109.82 44.76C109.82 40.43 106.46 37.29 102.33 37.29ZM118.67 49.28C116.41 49.28 114.46 47.41 114.46 44.76C114.46 42.07 116.41 40.23 118.67 40.23C120.93 40.23 122.88 42.07 122.88 44.76C122.88 47.41 120.93 49.28 118.67 49.28ZM118.67 37.29C114.54 37.29 111.18 40.43 111.18 44.76C111.18 49.05 114.54 52.22 118.67 52.22C122.8 52.22 126.16 49.05 126.16 44.76C126.16 40.43 122.8 37.29 118.67 37.29Z" fill="#FFFFFF" fill-opacity="1.000000" fill-rule="nonzero"/>
	<path id="path94" d="M35.47 33.21L16.79 53.04C16.79 53.04 16.79 53.05 16.79 53.05C17.36 55.2 19.33 56.79 21.66 56.79C22.6 56.79 23.47 56.53 24.22 56.09L24.28 56.06L45.31 43.92L35.47 33.21Z" fill="#EA4335" fill-opacity="1.000000" fill-rule="nonzero"/>
	<path id="path98" d="M54.37 29.83L54.35 29.82L45.27 24.56L35.04 33.66L45.31 43.92L54.34 38.71C55.92 37.85 57 36.19 57 34.26C57 32.35 55.94 30.69 54.37 29.83Z" fill="#FBBC04" fill-opacity="1.000000" fill-rule="nonzero"/>
	<path id="path102" d="M16.79 15.4C16.67 15.82 16.61 16.25 16.61 16.7L16.61 51.74C16.61 52.19 16.67 52.62 16.79 53.04L36.11 33.72L16.79 15.4Z" fill="#4285F4" fill-opacity="1.000000" fill-rule="nonzero"/>
	<path id="path106" d="M35.61 34.22L45.27 24.55L24.27 12.38C23.51 11.92 22.62 11.66 21.66 11.66C19.33 11.66 17.36 13.24 16.79 15.4C16.79 15.4 16.79 15.4 16.79 15.4L35.61 34.22Z" fill="#34A853" fill-opacity="1.000000" fill-rule="nonzero"/>
</svg>
